<svg xmlns="http://www.w3.org/2000/svg" xmlns:xlink="http://www.w3.org/1999/xlink" version="1.1" style="" xml:space="preserve" width="432.4" height="432.4"><rect id="backgroundrect" width="100%" height="100%" x="0" y="0" fill="none" stroke="none"/>
















<g class="currentLayer" style=""><title>Layer 1</title><g id="svg_1" class="" fill-opacity="1" fill="#ffffff">
	<g id="svg_2" fill="#ffffff" fill-opacity="1">
		<g id="svg_3" fill="#ffffff" fill-opacity="1">
			<path style="" d="M214.88727132911905,104.02268816391584 c-59.757433651474805,0 -108.57886637326794,44.93630202311927 -108.57886637326794,99.93833569941725 c0,28.75923329479633 13.670001162102077,56.43999534103779 36.71371740678843,75.1334969826554 c17.18514431807118,15.817578312137984 15.622858470973803,49.60967743352367 15.232287009199457,49.969167849708626 c0,1.7974520809247707 0.3905714617743469,3.2354137456645873 1.9528573088717254,4.673375410404404 c1.1717143853230363,1.0784712485548624 3.124571694194761,1.7974520809247707 4.686857541292139,1.7974520809247707 h99.59572275245799 c1.9528573088717254,0 3.5151431559691058,-0.7189808323699106 4.686857541292139,-1.7974520809247707 c1.1717143853230363,-1.0784712485548624 1.9528573088717254,-2.8759233294796336 1.9528573088717254,-4.673375410404404 c0,-0.35949041618495536 -1.9528573088717254,-34.15158953757064 15.232287009199457,-49.969167849708626 c0.3905714617743469,-0.35949041618495536 0.7811429235486923,-0.7189808323699106 1.1717143853230363,-1.0784712485548624 c22.653144782912012,-19.05299205780257 35.93257448323973,-46.01477327167413 35.93257448323973,-74.05502573410055 C323.46613770238696,148.9589901870351 274.64470498059376,104.02268816391584 214.88727132911905,104.02268816391584 zM277.3787052130143,269.74777002517976 c-0.3905714617743469,0.35949041618495536 -1.1717143853230363,1.0784712485548624 -1.1717143853230363,1.437961664739817 c-15.232287009199457,15.098597479768074 -17.966287241619867,39.90343619652991 -18.356858703394217,51.766619930633404 h-86.31629305213026 c-0.3905714617743469,-11.863183734103485 -3.124571694194761,-37.746493699420185 -19.528573088717256,-53.20458159537321 c-20.700287474040284,-16.53655914450789 -32.80800278904499,-40.62241702889982 -32.80800278904499,-66.14623657803156 c0,-48.53120618496881 42.57228933340362,-87.7156615491288 95.29943667294017,-87.7156615491288 s95.29943667294017,39.18445536416001 95.29943667294017,87.7156615491288 C309.79613654028486,229.12535299627987 298.07899268705455,253.21121088067184 277.3787052130143,269.74777002517976 z" id="svg_4" fill="#ffffff" fill-opacity="1"/>
			<path style="" d="M214.49669986734457,129.5465077130476 c-3.5151431559691058,0 -6.639714850163864,2.8759233294796336 -6.639714850163864,6.1113370751442195 c0,3.2354137456645873 3.124571694194761,6.1113370751442195 6.639714850163864,6.1113370751442195 c39.44771763920885,0 71.08400604293078,29.47821412716624 71.08400604293078,65.42725574566165 c0,3.2354137456645873 3.124571694194761,6.1113370751442195 6.639714850163864,6.1113370751442195 c3.5151431559691058,0 6.639714850163864,-2.8759233294796336 6.639714850163864,-6.1113370751442195 C299.2507070723775,164.41707808298816 261.36527528026613,129.5465077130476 214.49669986734457,129.5465077130476 z" id="svg_5" fill="#ffffff" fill-opacity="1"/>
			<path style="" d="M257.850132124297,342.3648340945404 h-86.70686451390458 c-8.983143620809933,0 -16.404001394522496,6.830317907514128 -16.404001394522496,15.098597479768074 s7.420857773712553,15.098597479768074 16.404001394522496,15.098597479768074 h86.31629305213026 c9.373715082584278,-0.35949041618495536 16.79457285629683,-6.830317907514128 16.79457285629683,-15.098597479768074 C274.25413351881946,349.19515200205456 266.8332757451069,342.3648340945404 257.850132124297,342.3648340945404 zM257.850132124297,359.9798644876032 h-86.70686451390458 c-1.5622858470973808,0 -3.124571694194761,-1.0784712485548624 -3.124571694194761,-2.8759233294796336 s1.1717143853230363,-2.8759233294796336 3.124571694194761,-2.8759233294796336 h86.31629305213026 c1.5622858470973808,0 3.124571694194761,1.0784712485548624 3.124571694194761,2.8759233294796336 S259.41241797139435,359.9798644876032 257.850132124297,359.9798644876032 z" id="svg_6" fill="#ffffff" fill-opacity="1"/>
			<path style="" d="M244.96127388574368,378.6733661292208 h-60.92914803679781 c-8.983143620809933,0 -16.404001394522496,6.830317907514128 -16.404001394522496,15.098597479768074 s7.420857773712553,15.098597479768074 16.404001394522496,15.098597479768074 h60.92914803679781 c8.983143620809933,0 16.404001394522496,-6.830317907514128 16.404001394522496,-15.098597479768074 C261.36527528026613,385.14419362054997 253.94441750655355,378.6733661292208 244.96127388574368,378.6733661292208 zM244.96127388574368,396.28839652228356 h-60.92914803679781 c-1.5622858470973808,0 -3.124571694194761,-1.0784712485548624 -3.124571694194761,-2.8759233294796336 s1.1717143853230363,-2.8759233294796336 3.124571694194761,-2.8759233294796336 h60.92914803679781 c1.5622858470973808,0 3.124571694194761,1.0784712485548624 3.124571694194761,2.8759233294796336 S246.52355973284094,396.28839652228356 244.96127388574368,396.28839652228356 z" id="svg_7" fill="#ffffff" fill-opacity="1"/>
			<path style="" d="M214.49669986734457,74.18498362056464 c3.9057146177434534,0 6.639714850163864,-2.8759233294796336 6.639714850163864,-6.1113370751442195 V26.372758267965754 c0,-3.2354137456645873 -3.124571694194761,-6.1113370751442195 -6.639714850163864,-6.1113370751442195 c-3.5151431559691058,0 -6.639714850163864,2.8759233294796336 -6.639714850163864,6.1113370751442195 v41.70088827745468 C207.8569850171808,71.30906029108502 210.98155671137562,74.18498362056464 214.49669986734457,74.18498362056464 z" id="svg_8" fill="#ffffff" fill-opacity="1"/>
			<path style="" d="M325.02842354948433,51.17759698472758 c-3.124571694194761,-2.156942497109725 -7.0302863119382115,-1.0784712485548624 -8.983143620809933,1.437961664739817 l-24.996573553558086,34.5110799537556 c-2.34342877064607,2.8759233294796336 -1.5622858470973808,6.830317907514128 1.5622858470973808,8.6277699884389 c1.1717143853230363,0.7189808323699106 2.34342877064607,1.0784712485548624 3.5151431559691058,1.0784712485548624 c2.34342877064607,0 4.296286079517797,-1.0784712485548624 5.468000464840832,-2.8759233294796336 l24.996573553558086,-34.5110799537556 C328.9341381672278,56.92944364368685 328.15299524367913,52.97504906565235 325.02842354948433,51.17759698472758 z" id="svg_9" fill="#ffffff" fill-opacity="1"/>
			<path style="" d="M135.21069312715264,95.39491817547693 c1.1717143853230363,0 2.34342877064607,-0.35949041618495536 3.5151431559691058,-1.0784712485548624 c3.124571694194761,-1.7974520809247707 3.9057146177434534,-5.751846658959267 1.9528573088717254,-8.6277699884389 l-24.215430630009394,-34.87057036994055 c-1.9528573088717254,-2.8759233294796336 -6.249143388389522,-3.5949041618495414 -9.373715082584278,-1.7974520809247707 s-3.9057146177434534,5.751846658959267 -1.9528573088717254,8.6277699884389 l24.215430630009394,34.87057036994055 C130.91440704763482,94.67593734310704 132.86726435650655,95.39491817547693 135.21069312715264,95.39491817547693 z" id="svg_10" fill="#ffffff" fill-opacity="1"/>
			<path style="" d="M87.95154625245686,133.5009022910821 l-39.44771763920885,-19.771972890172478 c-3.124571694194761,-1.437961664739817 -7.420857773712553,-0.35949041618495536 -8.983143620809933,2.5164329132946786 c-1.9528573088717254,2.8759233294796336 -0.7811429235486923,6.830317907514128 2.734000232420416,8.268279572253945 l39.44771763920885,19.771972890172478 c1.1717143853230363,0.35949041618495536 1.9528573088717254,0.7189808323699106 3.124571694194761,0.7189808323699106 c2.34342877064607,0 4.686857541292139,-1.0784712485548624 5.858571926615175,-3.2354137456645873 C92.24783233197468,138.89325853385637 91.0761179466516,134.9388639558219 87.95154625245686,133.5009022910821 z" id="svg_11" fill="#ffffff" fill-opacity="1"/>
			<path style="" d="M389.86328620402554,116.24536231420429 c-1.5622858470973808,-2.8759233294796336 -5.858571926615175,-3.954394578034496 -8.983143620809933,-2.5164329132946786 l-39.8382891009832,19.771972890172478 c-3.124571694194761,1.437961664739817 -4.296286079517797,5.392356242774312 -2.734000232420416,8.268279572253945 c1.1717143853230363,2.156942497109725 3.5151431559691058,3.2354137456645873 5.858571926615175,3.2354137456645873 c1.1717143853230363,0 2.34342877064607,-0.35949041618495536 3.124571694194761,-0.7189808323699106 l39.8382891009832,-19.771972890172478 C390.25385766579996,123.07568022171844 391.4255720511229,119.12128564368393 389.86328620402554,116.24536231420429 z" id="svg_12" fill="#ffffff" fill-opacity="1"/>
		</g>
	</g>
</g><g id="svg_13">
</g><g id="svg_14">
</g><g id="svg_15">
</g><g id="svg_16">
</g><g id="svg_17">
</g><g id="svg_18">
</g><g id="svg_19">
</g><g id="svg_20">
</g><g id="svg_21">
</g><g id="svg_22">
</g><g id="svg_23">
</g><g id="svg_24">
</g><g id="svg_25">
</g><g id="svg_26">
</g><g id="svg_27">
</g></g></svg>