<svg xmlns="http://www.w3.org/2000/svg" height="512" width="512" data-name="Layer 1" style=""><rect id="backgroundrect" width="100%" height="100%" x="0" y="0" fill="none" stroke="none"/><g class="currentLayer" style=""><title>Layer 1</title><path d="m122.27692850842817,426.1800077590117 l0.5198225962165492,-0.5198225962165492 a20.437277912267284,20.437277912267284 0 0 1 2.5502544627942876,-25.741230504171735 l50.87052809076344,-50.87132905007964 a20.437277912267284,20.437277912267284 0 0 1 25.680357596140215,-2.591904347236908 a27.092448870608287,27.092448870608287 0 0 0 6.601506684155314,-15.944697107677728 c0.10092087384173386,-19.623503247003782 12.881828682512728,-36.0575864968823 29.935854443133323,-40.271433459432785 l-18.676769335250377,-18.67757029456658 a40.11764927072157,40.11764927072157 0 0 1 -38.832910527529975,31.350348595550003 a27.082837358813833,27.082837358813833 0 0 0 -15.967123968531443,6.600705724839108 a20.414851051413567,20.414851051413567 0 0 1 -2.595909143817929,25.682760474088827 l-50.868926172131026,50.868926172131026 a20.416452970045974,20.416452970045974 0 0 1 -25.744434341436556,2.5558611780077167 l-0.5166187589517325,0.5158177996355285 a27.118079568726817,27.118079568726817 0 0 0 0,38.34993205985883 c10.18579962416927,10.18579962416927 26.112074667574298,9.625929062142509 37.044368374445924,-1.306364644729109 z" id="svg_1" class="" fill="#ffffff" fill-opacity="1"/><path d="m103.96338896292198,384.27675696838867 l53.83461785404011,-53.83377022496444 a13.087392928365965,13.087392928365965 0 0 0 2.4928771115495016,-15.046263722242506 l-71.37036817152944,71.37036817152944 a13.086545299290295,13.086545299290295 0 0 0 15.046263722242506,-2.493724740625173 z" id="svg_2" class="selected" fill="#ffffff" fill-opacity="1"/><path d="m383.77910691371073,136.8988059839757 a3.9302587585276236,3.9302587585276236 0 0 1 0.9882876010597679,-0.7199027892703742 l18.86587353460739,-9.682376768849132 l24.916372306271224,-35.30917945926875 l-8.433598026934952,-8.42965119146746 l-35.309968826362244,24.916372306271224 l-9.67842993338164,18.861926699139897 a3.927890657247128,3.927890657247128 0 0 1 -0.7206921563638725,0.9882876010597679 l-134.4639481748603,134.4600013393928 l9.375312969478326,9.375312969478326 z" id="svg_3" class="" fill="#ffffff" fill-opacity="1"/><path d="m181.19924399801533,353.99133564492365 l-52.38007012085002,52.38007012085002 a12.774600946336735,12.774600946336735 0 0 0 -2.4222998889141323,14.63771822555261 l69.44421200087501,-69.44421200087501 a12.774600946336735,12.774600946336735 0 0 0 -14.641841991110857,2.426423654472379 z" id="svg_4" class="" fill="#ffffff" fill-opacity="1"/><path d="m249.3 300.616a4.939 4.939 0 0 0 6.985 0l2.162-2.162a4.944 4.944 0 0 0 0-6.984l-39.264-39.264a4.938 4.938 0 0 0 -6.985 0l-2.159 2.16a4.937 4.937 0 0 0 0 6.985z" id="svg_5" class="" fill="#ffffff" fill-opacity="1"/></g></svg>