<svg xmlns="http://www.w3.org/2000/svg" height="517.2287582677098" width="506.77124173229026"><rect id="backgroundrect" width="100%" height="100%" x="0" y="0" fill="none" stroke="none"/><g class="currentLayer" style=""><title>Layer 1</title><path d="m307.9058672310331,329.349622038684 c0.9451547192071617,-6.050343441943392 1.4058751934941283,-12.266682411080845 1.4058751934941283,-18.499959416139802 c0,-6.19940093321595 -0.4607204742869665,-12.341211156717124 -1.385548856597492,-18.354290225842377 l30.58032083036849,-23.99472903574039 c7.178431724266119,-5.643826243634608 9.160207076999685,-15.854204556345607 4.607204742869664,-23.811795472624826 l-19.73983908243987,-34.18817017976843 c-4.590266706948161,-7.937264579382582 -14.448330230090022,-11.34185316153178 -22.941170366292482,-7.920326543461079 l-36.04121351088753,14.522858108487759 c-9.841125487220356,-7.933878012884529 -20.51900000893005,-14.116340042940434 -31.820202231145636,-18.40849350182056 l-5.477830716440546,-38.48032190417147 c-1.294082075039709,-9.048414825783805 -9.156819643263091,-15.874530893242243 -18.317026720262774,-15.874530893242243 h-39.442414659300134 c-9.160207076999685,0 -17.02294377798453,6.826116067458439 -18.317026720262774,15.891468929163747 l-5.477830716440546,38.500648241068106 c-11.321528559112224,4.349743301356359 -22.1078078983012,10.603345776073413 -31.671145607111615,18.37122912900242 l-36.207209038081594,-14.522858108487759 c-8.492839268963923,-3.4045885821491977 -18.33396388894574,0 -22.9242305958939,7.920326543461079 l-19.722901913756903,34.18817017976843 c-4.586878405973028,7.957590916279219 -2.5881650173179582,18.20523360180836 4.644469115687803,23.828733508546332 l30.546444758525478,23.83212180952146 c-0.9451547192071617,6.050343441943392 -1.4058751934941283,12.266682411080845 -1.4058751934941283,18.499959416139802 c0,6.19940093321595 0.4607204742869665,12.341211156717124 1.3855497238360317,18.354290225842377 l-30.58032169760703,23.99472903574039 c-7.178431724266119,5.643826243634608 -9.156819643263091,15.854204556345607 -4.607204742869664,23.811795472624826 l19.722901913756903,34.18817017976843 c4.586878405973028,7.920326543461079 14.448329362851482,11.324915125610275 22.941168631815405,7.920326543461079 l36.04121437812607,-14.522858108487759 c9.841124619981818,7.933878012884529 20.515611707954914,14.116340042940434 31.820201363907092,18.40849350182056 l5.477831583679086,38.48032190417147 c1.3110209781997526,9.048414825783805 9.173757679184595,15.874530893242243 18.33396475618428,15.874530893242243 h39.442414659300134 c9.160207076999685,0 17.022944645223067,-6.826116067458439 18.317026720262774,-15.891468929163747 l5.477830716440546,-38.500648241068106 c11.321528559112224,-4.349743301356359 22.1078078983012,-10.603345776073413 31.671145607111615,-18.37122912900242 l36.207209038081594,14.522858108487759 c8.530103641782064,3.421526618070701 18.354290225842377,0.01693803592150351 22.92423146313244,-7.920326543461079 l19.722901046518366,-34.18817017976843 c4.586879273211568,-7.957590916279219 2.5881650173179582,-18.20523360180836 -4.644469115687803,-23.828733508546332 zm-118.84894433011583,46.254980991812204 c-35.709224190976485,0 -64.754940407952,-29.04910365071211 -64.754940407952,-64.754940407952 s29.045716216975517,-64.754940407952 64.754940407952,-64.754940407952 c35.705836757239894,0 64.75155297421541,29.04910365071211 64.75155297421541,64.754940407952 s-29.045716216975517,64.754940407952 -64.75155297421541,64.754940407952 zm0,0 " id="svg_1" class="" fill="#ffffff" fill-opacity="1"/><path d="m427.8353992786952,143.05526700814062 c0.28757469538416564,-2.380326984454979 0.7106411375860577,-4.732518792313869 0.7106411375860577,-7.205695244890384 c0,-2.4759906184954854 -0.42306644220189243,-4.825368260435405 -0.7106411375860577,-7.208509410809356 l13.607260169045166,-10.477942117360438 c3.03336053894972,-2.335308973209606 3.879493423353505,-6.609206595889199 1.97707620773518,-9.974302936480791 l-12.2163939172854,-21.51298176373827 c-1.9024172156183246,-3.348214946518667 -5.967175283159517,-4.746586740756004 -9.47060948947219,-3.241296809666817 l-15.658994661021026,6.7161240124528705 c-3.821425632985361,-2.9655611306448213 -7.883418028317653,-5.579419948795394 -12.368477573728011,-7.4842443695431715 l-2.0821512232643853,-16.91833117107949 c-0.4838999047789373,-3.8405989042987922 -3.685933178291461,-6.7301926811831825 -7.490767609528109,-6.7301926811831825 h-24.418963012907163 c-3.804834431236649,0 -7.0234589064978845,2.8895937768843902 -7.490767609528109,6.7301926811831825 l-2.0849168954732855,16.91833117107949 c-4.485058837534185,1.9048244207477771 -8.560877470282461,4.5327511873404855 -12.368476865851838,7.4842443695431715 l-15.6589953688972,-6.7161240124528705 c-3.5172597358524844,-1.5052899310891865 -7.582017095517504,-0.12380025121295422 -9.484434311135828,3.241296809666817 l-12.199803423412861,21.51298176373827 c-1.9051821799510518,3.351028392149458 -1.0590492955472677,7.62211184891008 1.9770754998590068,9.974302936480791 l13.60726087692134,10.477942117360438 c-0.3041658971328773,2.3831411503739495 -0.7244673750020415,4.732518792313869 -0.7244673750020415,7.208509410809356 c0,2.4731764525765145 0.4203014778691651,4.825368260435405 0.7078761732533306,7.205695244890384 l-13.604495204712439,10.48075556299123 c-3.0361247954062747,2.335309693497786 -3.8822583876862327,6.606393150258408 -1.9798411720679077,9.971489490849999 l12.216394625161572,21.512982484026452 c1.9024172156183246,3.351028392149458 5.9671745752833445,4.746586740756004 9.470608781596017,3.241296809666817 l15.6589953688972,-6.7301926811831825 c3.821424925109188,2.9655611306448213 7.883418028317653,5.579419948795394 12.368476865851838,7.4842443695431715 l2.0821512232643853,16.91833117107949 c0.4838999047789373,3.8574810186598976 3.685933178291461,6.744260629625316 7.490767609528109,6.744260629625316 h24.418963012907163 c3.8075993955693774,0 7.0234589064978845,-2.88677961096542 7.490768317404283,-6.7301926811831825 l2.084916187597112,-16.91833117107949 c4.485059545410358,-1.9048244207477771 8.560877470282461,-4.5327511873404855 12.368476865851838,-7.481430923912379 l15.6589953688972,6.7133112871102565 c3.5172597358524844,1.5052899310891865 7.582017803393677,0.12379953092477437 9.484435019012,-3.241296809666817 l12.199802715536686,-21.512982484026452 c1.9051828878272252,-3.351028392149458 1.0590492955472677,-7.62211184891008 -1.9770754998590068,-9.971489490849999 zm-55.91945272268035,23.5247243213379 c-16.687627933155948,0 -30.203638616211713,-13.753002435461285 -30.203638616211713,-30.730419566228285 c0,-16.98023129668597 13.516010683055772,-30.733233732147255 30.203638616211713,-30.733233732147255 c16.684862968823218,0 30.200873651878993,13.753002435461285 30.200873651878993,30.733233732147255 c0,16.977417130766998 -13.516010683055772,30.730419566228285 -30.200873651878993,30.730419566228285 zm0,0 " id="svg_2" class="" fill="#ffffff" fill-opacity="1"/></g></svg>