<svg xmlns="http://www.w3.org/2000/svg" version="1.0" width="260" height="260" preserveAspectRatio="xMidYMid meet" style=""><rect id="backgroundrect" width="100%" height="100%" x="0" y="0" fill="none" stroke="none"/>


<g class="currentLayer" style=""><title>Layer 1</title><g transform="translate(0,260) scale(0.10000000149011612,-0.10000000149011612) " fill="#f8b24f" stroke="none" id="svg_1" class="selected" fill-opacity="1">
<path d="M1123.8943429677845,2571.9859482196357 c-342.43934889103696,-46.786771505461445 -652.028411405899,-226.96561496266406 -855.102909004072,-497.7316117602282 c-267.77960712700275,-358.3667604673643 -336.46656954991425,-798.361505263406 -189.1380124688867,-1214.4651326949568 c52.75955084658419,-148.324020304548 98.55085912852518,-229.9520046332254 205.065424045214,-368.32139270256886 c288.68433482093235,-375.289635267212 793.3841891458037,-560.4457948420169 1264.2382938709795,-462.8903989370122 c404.1580687493053,83.61891077571833 744.6064911933014,350.40305467920064 913.8352391917789,716.7335209347286 c124.43290294005705,271.7614600210846 154.29679964567075,567.4140374066601 83.61891077571833,856.0983722275924 c-96.55993268148427,397.1898261846621 -381.2624146083348,727.6836163934536 -764.5157556637105,885.9622689332061 c-99.54632235204564,40.813992164338714 -202.07903437465265,67.69149919939103 -328.5028637617506,84.6143739992388 c-125.4283661635775,16.922874799847758 -202.07903437465265,16.922874799847758 -329.49832698527104,0 zm-623.1599779238056,-566.4185741831396 c96.55993268148427,-44.79584505842054 126.42382938709795,-71.67335209347286 126.42382938709795,-113.48280748133203 c0,-12.941021905765933 -67.69149919939103,-176.19699056312078 -151.31040997510937,-362.3486133614461 c-122.44197649301613,-272.75692324460505 -156.28772609271164,-340.4484224439961 -175.20152733960032,-347.41666500863926 c-46.786771505461445,-17.918338023368214 -98.55085912852518,-9.954632235204564 -168.23328477495713,26.87750703505232 c-96.55993268148427,51.76408762306373 -105.51910169316838,60.72325663474784 -99.54632235204564,109.50095458725019 c6.9682425646431945,64.70510952882967 268.7750703505232,665.9648965351853 307.59813606782103,707.7743519230445 c29.86389670561369,31.854823152654603 51.76408762306373,28.868433482093234 160.26957898679348,-20.904727693929583 zm1752.015273396003,13.936485129286389 c17.918338023368214,-13.936485129286389 66.69603597587057,-117.46466037541384 171.21967444551848,-362.3486133614461 l146.3330938575071,-342.43934889103696 l-17.918338023368214,-36.83213927025689 c-20.904727693929583,-44.79584505842054 -44.79584505842054,-60.72325663474784 -145.33763063398663,-96.55993268148427 c-59.72779341122738,-20.904727693929583 -83.61891077571833,-24.88658058801141 -97.55539590500473,-17.918338023368214 c-44.79584505842054,23.891117364490952 -69.68242564643194,73.66427854051378 -262.8022910094005,518.6363394541578 c-88.59622689332062,206.06088726873446 -94.56900623444335,225.9701517391436 -68.68696242291149,254.83858522123683 c19.909264470409127,23.891117364490952 194.115328586489,101.53724879908654 227.9610781861845,102.532712022607 c11.945558682245476,0 32.85028637617506,-8.959169011684107 46.786771505461445,-19.909264470409127 zm-591.305154771151,-130.4056822811798 c53.75501407010464,-20.904727693929583 99.54632235204564,-31.854823152654603 158.27865253975256,-35.83667604673643 c97.55539590500473,-6.9682425646431945 89.59169011684108,1.9909264470409127 162.2605054338344,-163.25596865735486 c62.71418308178875,-141.3557777399048 208.05181371577538,-500.71800143078957 208.05181371577538,-512.663560113035 c-0.9954632235204562,-4.977316117602282 -35.83667604673643,-30.859359929134147 -79.63705788163651,-56.741403740666016 l-79.63705788163651,-47.782234728981905 l-249.86126910363456,221.98829884506176 c-137.37392484582298,122.44197649301613 -261.80682778588005,224.97468851562314 -276.7387761386869,228.95654140970495 c-45.79130828194099,12.941021905765933 -87.60076366980016,-1.9909264470409127 -217.0109827274595,-82.62344755219787 c-110.49641781077065,-68.68696242291149 -133.39207195174114,-78.64159465811605 -173.2106008925594,-78.64159465811605 c-34.84121282321597,0 -55.745940517145556,6.9682425646431945 -86.6053004462797,29.86389670561369 c-114.47827070485248,82.62344755219787 -98.55085912852518,155.29226286919118 65.70057275235013,309.58906251486195 c74.65974176403422,70.6778888699524 198.0971814805708,166.2423583279162 247.87034265659364,192.12440213944808 c86.6053004462797,43.80038183490008 202.07903437465265,42.80491861137962 320.53915797358695,-4.977316117602282 zm-483.7951266309418,19.909264470409127 c19.909264470409127,-4.977316117602282 36.83213927025689,-13.936485129286389 36.83213927025689,-18.91380124688867 c0,-4.977316117602282 -60.72325663474784,-65.70057275235013 -134.3875351752616,-135.38299839878206 c-169.2287479984776,-160.26957898679348 -189.1380124688867,-187.14708602184578 -181.17430668072305,-247.87034265659364 c11.945558682245476,-86.6053004462797 55.745940517145556,-143.34670418694571 143.34670418694571,-188.14254924536624 c78.64159465811605,-39.818528940818254 182.1697699042435,-7.963705788163651 321.5346211971074,96.55993268148427 c40.813992164338714,31.854823152654603 84.6143739992388,56.741403740666016 96.55993268148427,56.741403740666016 c22.895654140970496,0 54.750477293625096,-25.882043811531865 349.4075914556802,-283.70701870333005 c100.5417855755661,-87.60076366980016 191.12893891592762,-163.25596865735486 202.07903437465265,-168.23328477495713 c27.872970258572778,-12.941021905765933 23.891117364490952,-32.85028637617506 -15.927411576327302,-72.66881531699332 c-33.845749599695516,-33.845749599695516 -37.82760249377734,-34.84121282321597 -94.56900623444335,-30.859359929134147 c-55.745940517145556,3.9818528940818254 -59.72779341122738,2.986389670561369 -59.72779341122738,-16.922874799847758 c0,-11.945558682245476 -12.941021905765933,-39.818528940818254 -29.86389670561369,-62.71418308178875 c-35.83667604673643,-49.77316117602282 -90.58715334036152,-70.6778888699524 -143.34670418694571,-54.750477293625096 c-31.854823152654603,9.954632235204564 -32.85028637617506,8.959169011684107 -43.80038183490008,-20.904727693929583 c-6.9682425646431945,-17.918338023368214 -27.872970258572778,-46.786771505461445 -47.782234728981905,-65.70057275235013 c-31.854823152654603,-31.854823152654603 -39.818528940818254,-34.84121282321597 -94.56900623444335,-33.845749599695516 c-51.76408762306373,0.9954632235204562 -58.73233018770692,-0.9954632235204562 -58.73233018770692,-17.918338023368214 c0,-54.750477293625096 -57.73686696418647,-107.51002814020929 -118.4601235989343,-107.51002814020929 c-35.83667604673643,0 -80.63252110515697,18.91380124688867 -80.63252110515697,33.845749599695516 c0,6.9682425646431945 30.859359929134147,38.823065717297794 68.68696242291149,70.6778888699524 c37.82760249377734,32.85028637617506 75.65520498755468,71.67335209347286 84.6143739992388,86.6053004462797 c25.882043811531865,41.80945538785917 20.904727693929583,98.55085912852518 -13.936485129286389,145.33763063398663 c-35.83667604673643,50.76862439954327 -56.741403740666016,61.718719858268294 -111.49188103429111,61.718719858268294 c-41.80945538785917,0 -43.80038183490008,0.9954632235204562 -57.73686696418647,41.80945538785917 c-20.904727693929583,58.73233018770692 -55.745940517145556,80.63252110515697 -134.3875351752616,85.60983722275924 c-51.76408762306373,2.986389670561369 -64.70510952882967,7.963705788163651 -64.70510952882967,20.904727693929583 c0,55.745940517145556 -80.63252110515697,116.4691971518934 -145.33763063398663,108.50549136372975 c-28.868433482093234,-2.986389670561369 -32.85028637617506,-0.9954632235204562 -37.82760249377734,24.88658058801141 c-12.941021905765933,63.70964630530921 -73.66427854051378,116.4691971518934 -134.3875351752616,116.4691971518934 c-46.786771505461445,0 -78.64159465811605,-15.927411576327302 -138.36938806934344,-72.66881531699332 c-110.49641781077065,-101.53724879908654 -107.51002814020929,-99.54632235204564 -131.40114550470025,-86.6053004462797 c-12.941021905765933,6.9682425646431945 -19.909264470409127,17.918338023368214 -16.922874799847758,27.872970258572778 c1.9909264470409127,9.954632235204564 65.70057275235013,158.27865253975256 141.3557777399048,331.48925343231195 l137.37392484582298,314.5663786324642 l90.58715334036152,5.972779341122738 c49.77316117602282,2.986389670561369 110.49641781077065,11.945558682245476 135.38299839878206,21.90019091745004 c107.51002814020929,39.818528940818254 215.02005628041857,52.75955084658419 281.71609225628913,33.845749599695516 zm-438.00381834900077,-676.9149919939103 c19.909264470409127,-24.88658058801141 21.90019091745004,-68.68696242291149 4.977316117602282,-89.59169011684108 c-6.9682425646431945,-7.963705788163651 -56.741403740666016,-54.750477293625096 -110.49641781077065,-102.532712022607 c-95.56446945796381,-87.60076366980016 -97.55539590500473,-88.59622689332062 -139.36485129286388,-82.62344755219787 c-50.76862439954327,6.9682425646431945 -86.6053004462797,43.80038183490008 -86.6053004462797,89.59169011684108 c0,27.872970258572778 12.941021905765933,43.80038183490008 105.51910169316838,126.42382938709795 c58.73233018770692,51.76408762306373 113.48280748133203,97.55539590500473 122.44197649301613,100.5417855755661 c20.904727693929583,8.959169011684107 81.62798432867743,-15.927411576327302 103.52817524612746,-41.80945538785917 zm161.26504221031394,-115.47373392837294 c29.86389670561369,-21.90019091745004 48.777697952502365,-64.70510952882967 39.818528940818254,-90.58715334036152 c-2.986389670561369,-10.95009545872502 -24.88658058801141,-36.83213927025689 -47.782234728981905,-57.73686696418647 c-22.895654140970496,-19.909264470409127 -66.69603597587057,-59.72779341122738 -96.55993268148427,-88.59622689332062 c-63.70964630530921,-60.72325663474784 -87.60076366980016,-70.6778888699524 -134.3875351752616,-54.750477293625096 c-42.80491861137962,13.936485129286389 -64.70510952882967,43.80038183490008 -64.70510952882967,85.60983722275924 c0,27.872970258572778 13.936485129286389,44.79584505842054 111.49188103429111,133.39207195174114 c98.55085912852518,89.59169011684108 114.47827070485248,100.5417855755661 139.36485129286388,95.56446945796381 c15.927411576327302,-2.986389670561369 39.818528940818254,-13.936485129286389 52.75955084658419,-22.895654140970496 zm201.0835711511322,-123.43743971653659 c41.80945538785917,-25.882043811531865 55.745940517145556,-57.73686696418647 41.80945538785917,-95.56446945796381 c-5.972779341122738,-14.931948352806845 -54.750477293625096,-66.69603597587057 -108.50549136372975,-114.47827070485248 c-84.6143739992388,-76.65066821107514 -102.532712022607,-87.60076366980016 -134.3875351752616,-87.60076366980016 c-46.786771505461445,0 -70.6778888699524,12.941021905765933 -90.58715334036152,50.76862439954327 c-21.90019091745004,43.80038183490008 -11.945558682245476,67.69149919939103 52.75955084658419,125.4283661635775 c31.854823152654603,27.872970258572778 80.63252110515697,71.67335209347286 107.51002814020929,96.55993268148427 c56.741403740666016,50.76862439954327 81.62798432867743,55.745940517145556 131.40114550470025,24.88658058801141 zm188.14254924536624,-129.41021905765933 c38.823065717297794,-23.891117364490952 53.75501407010464,-46.786771505461445 53.75501407010464,-82.62344755219787 c0,-18.91380124688867 -25.882043811531865,-48.777697952502365 -109.50095458725019,-124.43290294005705 c-64.70510952882967,-59.72779341122738 -117.46466037541384,-100.5417855755661 -129.41021905765933,-100.5417855755661 c-32.85028637617506,0 -86.6053004462797,26.87750703505232 -98.55085912852518,47.782234728981905 c-5.972779341122738,11.945558682245476 -10.95009545872502,33.845749599695516 -10.95009545872502,49.77316117602282 c0,28.868433482093234 0.9954632235204562,29.86389670561369 189.1380124688867,199.09264470409127 c40.813992164338714,36.83213927025689 60.72325663474784,38.823065717297794 105.51910169316838,10.95009545872502 z" id="svg_2" fill="#f8b24f"/>
</g></g></svg>